<svg width="189" height="55" viewBox="0 0 189 55" fill="none" xmlns="http://www.w3.org/2000/svg">
<path d="M63.8484 54.1833C62.5074 54.1833 61.1663 53.902 59.8252 53.3395C58.532 52.777 57.3107 51.9549 56.1612 50.8732C54.4849 49.3155 53.024 47.4549 51.7788 45.2915C50.5814 43.0847 49.5516 40.8347 48.6895 38.5415C47.8274 36.2049 47.1568 34.0847 46.6779 32.1809C46.1989 30.2338 45.8637 28.741 45.6721 27.7025C43.9 30.7746 42.056 33.8251 40.1402 36.854C38.2722 39.8395 35.8775 42.7818 32.9558 45.6809C30.1779 48.4068 27.1365 50.4621 23.8317 51.8468C20.527 53.2746 17.1024 53.9886 13.5582 53.9886C12.4566 53.9886 11.331 53.9237 10.1815 53.7939C7.02043 53.4477 4.6975 52.6256 3.21274 51.3275C1.72798 50.0294 0.985596 48.6448 0.985596 47.1737C0.985596 45.5727 1.77587 44.1232 3.35642 42.8251C4.93697 41.527 7.18806 40.878 10.1097 40.878C11.0676 40.878 12.0973 40.9645 13.1989 41.1376C14.3005 41.3107 15.45 41.5919 16.6474 41.9814C17.1743 42.1544 17.4377 42.3492 17.4377 42.5655C17.4377 42.7386 17.2461 42.8251 16.863 42.8251C16.6235 42.8251 16.4319 42.8035 16.2882 42.7602C14.7077 42.241 13.2947 41.9814 12.0495 41.9814C10.0378 41.9814 8.50519 42.5222 7.45149 43.604C6.39779 44.6424 5.87094 45.7891 5.87094 47.0439C5.87094 48.2554 6.44568 49.3804 7.59517 50.4189C8.74467 51.4573 10.5168 51.9766 12.9116 51.9766C15.929 51.9766 18.7069 51.3492 21.2454 50.0943C23.7838 48.7963 26.1547 47.0439 28.3579 44.8371C30.5611 42.5871 32.6685 40.0559 34.6801 37.2434C36.6917 34.3876 38.6554 31.4237 40.5712 28.3516C43.7802 23.2025 46.6779 18.5294 49.2643 14.3323C51.8985 10.0919 54.6764 6.5006 57.5981 3.55829C56.3049 3.42848 54.9878 3.34194 53.6467 3.29867C52.3056 3.2554 50.9406 3.23377 49.5516 3.23377C46.5342 3.23377 43.3971 3.38521 40.1402 3.68809C36.9312 3.94771 33.818 4.3804 30.8005 4.98617C26.7294 5.76502 23.233 6.93329 20.3114 8.49098C17.3898 10.0054 15.0669 11.7145 13.3426 13.6184C11.6663 15.479 10.6126 17.3612 10.1815 19.265C10.0378 19.9573 9.966 20.628 9.966 21.277C9.966 23.4838 10.7802 25.1929 12.4087 26.4044C14.0371 27.616 15.905 28.2218 18.0124 28.2218C19.3535 28.2218 20.6946 27.9838 22.0357 27.5078C23.4246 26.9886 24.6699 26.1881 25.7715 25.1064C26.6815 24.241 27.3521 23.4405 27.7831 22.7049C28.2142 21.9261 28.4537 21.3419 28.5016 20.9525C28.5494 20.3468 28.6931 20.0439 28.9326 20.0439C29.0763 20.0439 29.196 20.152 29.2918 20.3684C29.4355 20.5847 29.4834 20.8011 29.4355 21.0174C29.2439 22.0126 28.9087 22.9862 28.4297 23.9381C27.9508 24.89 27.376 25.6905 26.7055 26.3395C25.3644 27.5943 23.8317 28.5246 22.1075 29.1304C20.3833 29.7362 18.7309 30.0391 17.1503 30.0391C15.2824 30.0391 13.5103 29.6713 11.8339 28.9357C10.2055 28.2001 8.88835 27.14 7.88255 25.7554C6.87674 24.3275 6.37384 22.5751 6.37384 20.4982C6.37384 18.0751 7.3078 15.6088 9.17572 13.0992C11.0436 10.5463 13.8455 8.29627 17.5814 6.34915C21.3651 4.40204 26.0589 3.06069 31.6627 2.32512C34.4885 1.97896 37.2185 1.71934 39.8528 1.54627C42.5349 1.32992 45.1213 1.22175 47.6119 1.22175C49.6235 1.22175 51.5872 1.28665 53.503 1.41646C55.4188 1.54627 57.3107 1.71935 59.1786 1.93569C60.4239 0.767423 61.2621 0.183289 61.6931 0.183289C62.0284 0.183289 62.196 0.421269 62.196 0.897229C62.196 1.07031 62.1721 1.28665 62.1242 1.54627C62.0763 1.80588 62.0045 2.0655 61.9087 2.32512C63.2018 2.49819 64.4471 2.6929 65.6445 2.90925C66.8898 3.08233 67.9914 3.29867 68.9493 3.55829C72.733 4.51021 75.487 5.76502 77.2113 7.32271C78.9834 8.83713 79.8695 10.4814 79.8695 12.2554C79.8695 14.1593 78.9116 16.0631 76.9957 17.9669C75.1278 19.8708 72.4696 21.5583 69.0211 23.0294C65.6206 24.5006 61.6213 25.5823 57.0233 26.2746C55.5386 26.491 54.2214 26.6424 53.0719 26.729C51.9703 26.8155 51.0124 26.8804 50.1982 26.9237C50.294 27.3564 50.5095 28.265 50.8448 29.6496C51.1801 31.0343 51.659 32.6785 52.2817 34.5823C52.9043 36.4429 53.6946 38.4117 54.6525 40.4886C55.6583 42.5655 56.8557 44.5343 58.2447 46.3948C59.3462 47.866 60.4718 49.0775 61.6213 50.0294C62.7708 50.9814 63.9921 51.4573 65.2853 51.4573C66.0995 51.4573 66.9377 51.2626 67.7998 50.8732C68.7098 50.4838 69.6438 49.8564 70.6017 48.991C71.7512 47.9525 72.8049 46.7843 73.7628 45.4862C74.7207 44.1881 81.2584 34.1559 81.9289 32.9877C82.5994 31.7761 83.1023 30.8242 83.4376 30.1319C83.725 30.1319 83.9405 30.1535 84.0842 30.1968C84.2279 30.2401 84.2997 30.4131 84.2997 30.716C84.1081 31.1487 83.7729 31.841 83.2939 32.793C82.815 33.7016 82.2402 34.7401 81.5697 35.9083C80.947 37.0333 73.7628 48.0823 73.7628 48.0823C72.9965 49.2073 72.2301 50.1593 71.4638 50.9381C70.3622 52.0198 69.1169 52.8203 67.728 53.3395C66.3869 53.902 65.0937 54.1833 63.8484 54.1833ZM47.1808 25.1713C48.5698 24.9549 50.0545 24.8035 51.6351 24.7169C53.2156 24.6304 54.7722 24.5006 56.3049 24.3275C58.7955 24.0246 61.1423 23.4405 63.3455 22.5751C65.5487 21.6665 67.4885 20.5847 69.1648 19.3299C70.8891 18.0751 72.2301 16.7554 73.188 15.3708C74.146 13.9429 74.6249 12.5799 74.6249 11.2818C74.6249 8.33954 72.4457 6.30588 68.0872 5.18088C67.2251 4.96454 66.0995 4.74819 64.7105 4.53185C63.3695 4.3155 62.1481 4.12079 61.0465 3.94771C58.7476 7.49579 56.3767 10.979 53.9341 14.3972C51.5393 17.8155 49.2882 21.4068 47.1808 25.1713Z" fill="#393431"/>
<path d="M176.086 4.99517C175.265 6.07924 174.35 7.4486 173.34 9.10324C172.33 10.7579 171.383 12.3555 170.5 13.896C169.679 15.4365 169.048 16.6062 168.606 17.405H177.317C177.317 17.6332 177.191 18.0041 176.938 18.5176C176.749 19.0311 176.338 19.4019 175.707 19.6302H167.47C166.712 21.1707 165.829 23.025 164.819 25.1932C163.872 27.3613 162.925 29.6151 161.978 31.9544C161.094 34.2937 160.337 36.4904 159.706 38.5444C159.138 40.5414 158.854 42.1675 158.854 43.4228C158.854 45.1345 159.106 46.4182 159.611 47.2741C160.116 48.0729 161.031 48.4723 162.357 48.4723C164.061 48.4723 168.183 46.6833 170.268 44.8083C171.846 43.2678 174.796 38.9805 176.185 36.6982C177.637 34.4159 178.899 32.1337 179.972 29.8514C180.73 29.8514 181.108 30.1082 181.108 30.6217C180.414 32.1622 179.562 33.8454 178.552 35.6712C177.542 37.497 176.374 39.2657 173.281 43.7936C172.019 45.4482 170.567 46.8176 168.926 47.9016C166.23 49.7764 162.893 50.4407 160.937 50.4407C158.285 50.4407 156.486 49.7846 155.54 48.4723C154.593 47.1029 154.119 45.3627 154.119 43.2516C154.119 41.7111 154.435 39.8567 155.066 37.6886C155.697 35.4634 156.455 33.1811 157.339 30.8418C158.285 28.5025 159.201 26.3343 160.084 24.3373C160.968 22.2833 161.662 20.7142 162.167 19.6302H156.108C156.108 19.1737 156.329 18.6887 156.77 18.1752C157.212 17.6617 157.686 17.405 158.191 17.405H163.209C163.714 16.4921 164.282 15.3509 164.913 13.9816C165.608 12.6122 166.523 11.1002 167.659 9.44558C168.606 8.07622 169.805 6.99215 171.257 6.19336C172.772 5.39457 174.382 4.99517 176.086 4.99517Z" fill="#393431"/>
<path d="M74.9624 50.9754C72.7123 50.9754 70.9632 50.2325 69.7152 48.7469C68.4861 47.2373 67.8716 45.1885 67.8716 42.6006C67.8716 40.8035 68.1836 39.2459 68.8076 37.928C69.4316 36.6101 70.2919 35.6037 71.3886 34.9088C72.4854 34.2139 73.7239 33.8665 75.1042 33.8665C77.3922 33.8665 79.1507 34.6332 80.3798 36.1668C81.6089 37.7004 82.2234 39.7372 82.2234 42.2771C82.2234 44.0264 81.9209 45.5599 81.3158 46.8779C80.7296 48.1958 79.8882 49.2142 78.7915 49.933C77.6948 50.6279 76.4184 50.9754 74.9624 50.9754ZM75.3595 48.675C76.1915 48.675 76.8344 48.1598 77.2882 47.1295C77.742 46.0991 77.9689 44.7572 77.9689 43.1038C77.9689 41.6421 77.8177 40.3841 77.5151 39.3298C77.2315 38.2515 76.8439 37.4368 76.3522 36.8857C75.8606 36.3345 75.3217 36.059 74.7355 36.059C73.9035 36.059 73.2606 36.5622 72.8068 37.5686C72.3719 38.575 72.1544 39.8929 72.1544 41.5223C72.1544 43.6789 72.4381 45.4162 73.0054 46.7341C73.5726 48.028 74.3573 48.675 75.3595 48.675Z" fill="#393431"/>
<path d="M96.5531 44.6494C96.5531 47.0216 96.6288 48.7828 96.7801 49.933C96.6099 50.4602 96.2317 50.7238 95.6455 50.7238C94.719 50.7238 93.9815 50.7118 93.4332 50.6878L90.2281 50.6519C88.1103 50.6519 86.3707 50.6758 85.0093 50.7238C84.858 50.4602 84.7256 50.1367 84.6122 49.7533C84.5176 49.3699 84.4704 48.9865 84.4704 48.6031C85.4536 46.9497 86.6071 44.925 87.9307 42.5287C89.2732 40.1325 90.3888 38.0838 91.2776 36.3825H89.519C88.9518 36.3825 88.5074 36.4903 88.1859 36.706C87.8834 36.8977 87.6376 37.2451 87.4485 37.7483C87.2783 38.2515 87.1176 39.0063 86.9663 40.0127C85.9641 40.0606 85.1889 39.9169 84.6405 39.5814C84.8107 37.952 84.8958 36.1189 84.8958 34.0821C86.0682 34.154 87.959 34.1899 90.5685 34.1899C92.9321 34.1899 94.7095 34.154 95.9008 34.0821C96.0331 34.2978 96.1277 34.5853 96.1844 34.9448C96.2601 35.3042 96.2979 35.6636 96.2979 36.023C95.447 37.7483 94.3975 39.7611 93.1495 42.0615C91.9016 44.3379 90.6914 46.4585 89.519 48.4234H91.8732C92.5161 48.4234 92.9983 48.3156 93.3197 48.0999C93.6412 47.8603 93.8775 47.4529 94.0288 46.8779C94.1801 46.3028 94.2841 45.4641 94.3408 44.3618C95.0593 44.29 95.7968 44.3858 96.5531 44.6494Z" fill="#393431"/>
<path d="M124.087 48.5312C124.239 49.1063 124.314 49.8492 124.314 50.7597C123.671 50.6878 122.471 50.6519 120.712 50.6519C119.029 50.6519 117.687 50.6878 116.684 50.7597C116.684 49.8731 116.751 49.1303 116.883 48.5312C117.299 48.4833 117.62 48.3515 117.847 48.1359C118.093 47.9202 118.263 47.5368 118.358 46.9857C118.471 46.4346 118.528 45.6438 118.528 44.6134V41.3067C118.528 39.845 118.358 38.8266 118.018 38.2515C117.677 37.6525 117.186 37.3529 116.543 37.3529C115.711 37.3529 115.03 37.8561 114.5 38.8625C113.99 39.845 113.735 41.2588 113.735 43.1038V45.2604C113.735 46.5064 113.848 47.3571 114.075 47.8124C114.302 48.2437 114.746 48.4833 115.408 48.5312C115.559 49.0105 115.635 49.7533 115.635 50.7597C115.011 50.6878 113.706 50.6519 111.721 50.6519C109.754 50.6519 108.431 50.6878 107.75 50.7597C107.75 49.7773 107.826 49.0344 107.977 48.5312C108.45 48.4833 108.799 48.3635 109.026 48.1718C109.253 47.9562 109.414 47.5728 109.509 47.0216C109.603 46.4465 109.65 45.5839 109.65 44.4337V41.0191C109.65 39.6533 109.471 38.6948 109.111 38.1437C108.771 37.5686 108.251 37.281 107.551 37.281C107.06 37.281 106.606 37.5207 106.19 37.9999C105.774 38.4552 105.443 39.1142 105.197 39.9768C104.951 40.8394 104.829 41.8578 104.829 43.0319V45.2604C104.829 46.1231 104.876 46.782 104.97 47.2373C105.065 47.6926 105.226 48.0161 105.453 48.2077C105.679 48.3755 106.02 48.4833 106.474 48.5312C106.625 49.0824 106.701 49.8252 106.701 50.7597C106.095 50.6878 104.725 50.6519 102.588 50.6519C100.508 50.6519 99.1843 50.6878 98.617 50.7597C98.617 49.8252 98.6926 49.0824 98.8439 48.5312C99.3734 48.4833 99.761 48.3755 100.007 48.2077C100.272 48.0161 100.451 47.7165 100.546 47.3092C100.659 46.8779 100.716 46.2429 100.716 45.4042V40.3722C100.716 39.5095 100.669 38.8745 100.574 38.4672C100.498 38.0359 100.309 37.7243 100.007 37.5327C99.7232 37.341 99.2694 37.2211 98.6454 37.1732C98.6454 36.3106 98.7588 35.6037 98.9857 35.0526C99.8556 35.0526 100.782 34.9328 101.765 34.6931C102.768 34.4535 103.505 34.178 103.978 33.8665C104.224 33.9623 104.422 34.178 104.573 34.5134C104.725 34.8249 104.8 35.2443 104.8 35.7714C104.8 36.2028 104.715 36.9456 104.545 37.9999C104.866 37.0654 105.141 36.4544 105.368 36.1668C105.802 35.5198 106.36 34.9807 107.041 34.5494C107.722 34.1181 108.469 33.9024 109.282 33.9024C110.189 33.9024 110.993 34.142 111.693 34.6213C112.392 35.1005 112.912 35.8194 113.253 36.7778C113.423 37.1612 113.517 37.5446 113.536 37.928C113.801 37.2092 114.094 36.6221 114.415 36.1668C114.831 35.5678 115.361 35.0765 116.004 34.6931C116.647 34.3098 117.356 34.1181 118.131 34.1181C119.568 34.1181 120.674 34.6093 121.45 35.5917C122.244 36.5502 122.641 38.0958 122.641 40.2284V44.4337C122.641 45.6318 122.679 46.5064 122.754 47.0576C122.83 47.6087 122.962 47.9801 123.151 48.1718C123.359 48.3635 123.671 48.4833 124.087 48.5312Z" fill="#393431"/>
<path d="M137.449 46.5544C137.638 46.6981 137.798 46.9497 137.931 47.3092C138.082 47.6686 138.167 48.04 138.186 48.4234C137.468 49.286 136.654 49.933 135.747 50.3643C134.839 50.7717 133.79 50.9754 132.599 50.9754C130.292 50.9754 128.561 50.1966 127.408 48.6391C126.274 47.0815 125.706 45.0448 125.706 42.5287C125.706 40.8274 125.98 39.3298 126.529 38.0359C127.077 36.7179 127.852 35.6996 128.855 34.9807C129.857 34.2379 131.02 33.8665 132.343 33.8665C134.291 33.8665 135.747 34.5614 136.711 35.9512C137.694 37.317 138.224 39.186 138.3 41.5583C138.186 42.2532 137.95 42.8283 137.59 43.2836C134.338 43.2836 131.814 43.3435 130.017 43.4633C130.188 44.9489 130.585 46.1231 131.209 46.9857C131.833 47.8244 132.721 48.2437 133.875 48.2437C134.537 48.2437 135.189 48.0999 135.832 47.8124C136.475 47.5009 137.014 47.0815 137.449 46.5544ZM132.258 36.0949C131.577 36.0949 131.02 36.5262 130.585 37.3889C130.169 38.2276 129.942 39.4856 129.904 41.1629H134.414C134.414 39.5574 134.225 38.3114 133.847 37.4248C133.487 36.5382 132.958 36.0949 132.258 36.0949Z" fill="#393431"/>
<path d="M152.359 34.9807C152.189 36.3705 152.104 37.7843 152.104 39.222C152.104 39.7012 152.113 40.0487 152.132 40.2643C151.584 40.5279 150.78 40.6597 149.721 40.6597C149.702 39.7491 149.589 39.1022 149.381 38.7188C149.173 38.3354 148.88 38.1437 148.502 38.1437C148.218 38.1437 147.916 38.3593 147.594 38.7907C147.273 39.198 147.008 39.7491 146.8 40.444C146.592 41.1389 146.488 41.8578 146.488 42.6006V44.3618C146.488 45.4162 146.573 46.2309 146.743 46.806C146.932 47.3811 147.225 47.8004 147.622 48.064C148.02 48.3036 148.587 48.4594 149.324 48.5312C149.457 49.0105 149.523 49.7533 149.523 50.7597C148.521 50.6878 147.046 50.6519 145.098 50.6519C142.905 50.6519 141.288 50.6878 140.248 50.7597C140.248 49.8012 140.305 49.0584 140.418 48.5312C140.948 48.4833 141.345 48.3635 141.609 48.1718C141.874 47.9562 142.063 47.6087 142.177 47.1295C142.29 46.6263 142.347 45.8834 142.347 44.901V40.0846C142.347 39.3418 142.3 38.7787 142.205 38.3953C142.111 38.0119 141.921 37.7243 141.638 37.5327C141.354 37.341 140.9 37.2211 140.276 37.1732C140.276 36.2387 140.39 35.5318 140.617 35.0526C141.619 35.0286 142.593 34.9088 143.538 34.6931C144.484 34.4535 145.193 34.178 145.665 33.8665C146.214 34.13 146.488 34.789 146.488 35.8433C146.488 36.3226 146.441 36.8617 146.346 37.4608C146.27 38.0359 146.166 38.6469 146.034 39.2939C146.337 38.1197 146.573 37.3649 146.743 37.0295C147.178 36.1429 147.698 35.436 148.303 34.9088C148.927 34.3816 149.598 34.1181 150.317 34.1181C151.092 34.1181 151.773 34.4056 152.359 34.9807Z" fill="#393431"/>
<path d="M179.797 50.4333C178.932 50.4333 178.161 50.2263 177.484 49.8121C176.844 49.398 176.524 48.5538 176.524 47.2796C176.524 46.738 176.562 46.2283 176.637 45.7505C176.75 45.2726 176.882 44.763 177.032 44.2214C176.694 44.6993 176.224 45.2886 175.622 45.9894C175.02 46.6903 174.343 47.3751 173.59 48.0441C172.875 48.7131 172.123 49.2706 171.333 49.7166C170.581 50.1626 169.866 50.3855 169.189 50.3855C168.211 50.3855 167.421 50.0192 166.819 49.2865C166.217 48.5219 165.89 47.3395 165.812 46.0036C165.812 44.6975 166.035 42.6259 166.75 41.1286C167.464 39.6313 168 38.5036 169.512 37.1442C171.128 35.6677 172.038 35.1919 173.655 34.3317C175.219 33.6295 177.017 33.2302 179.29 33.1833C180.155 33.1833 180.982 33.3107 181.772 33.5656C182.562 33.7886 183.258 34.1708 183.86 34.7124C184.124 34.9354 184.255 35.1902 184.255 35.4769C184.255 35.6681 184.161 35.8273 183.973 35.9548C183.785 36.0822 183.541 36.114 183.24 36.0503C182.826 34.9353 181.942 34.3779 180.587 34.3779C179.948 34.3779 179.214 34.5531 178.387 34.9035C177.371 35.3495 176.28 36.0662 175.114 37.0538C173.985 38.0095 172.913 39.1085 171.897 40.3509C170.919 41.5615 170.11 42.7879 169.471 44.0303C168.831 45.2727 168.512 46.4035 168.512 47.4229C168.512 48.4742 168.982 48.9998 169.922 48.9998C170.75 48.9998 171.596 48.6653 172.462 47.9963C173.364 47.3273 174.211 46.4991 175.001 45.5116C175.829 44.4922 176.581 43.4887 177.258 42.5012C177.935 41.5136 178.462 40.7173 178.838 40.112C179.402 39.2518 179.929 38.5351 180.418 37.9617C180.907 37.3883 181.603 37.1016 182.506 37.1016C182.92 37.1016 183.334 37.1494 183.747 37.2449C184.161 37.3405 184.594 37.3564 185.045 37.2927C183.917 38.2484 182.92 39.3793 182.055 40.6854C181.227 41.9915 180.587 43.2816 180.136 44.5559C179.685 45.7983 179.459 46.8495 179.459 47.7096C179.459 48.6653 179.835 49.1432 180.587 49.1432C181.189 49.1432 181.829 48.8565 182.506 48.283C183.221 47.7096 183.898 46.9929 184.537 46.1328C185.215 45.2408 185.835 44.3488 186.4 43.4569C186.964 42.533 187.415 41.7366 187.754 41.0677C187.942 41.0677 188.093 41.0836 188.205 41.1154C188.356 41.1473 188.431 41.2747 188.431 41.4977C188.393 41.6251 188.318 41.7685 188.205 41.9278C188.13 42.0552 187.998 42.2941 187.81 42.6445C187.509 43.1542 187.096 43.8391 186.569 44.6992C186.042 45.5594 185.422 46.4354 184.707 47.3274C183.992 48.1875 183.221 48.9202 182.393 49.5254C181.566 50.1307 180.7 50.4333 179.797 50.4333Z" fill="#393431"/>
</svg>
