<svg width="228" height="65" viewBox="0 0 228 65" fill="none" xmlns="http://www.w3.org/2000/svg">
<path d="M77.1165 64.2173C75.4924 64.2173 73.8682 63.884 72.244 63.2173C70.6778 62.5506 69.1986 61.5763 67.8065 60.2942C65.7762 58.4481 64.007 56.2429 62.4988 53.6788C61.0487 51.0634 59.8015 48.3968 58.7574 45.6788C57.7133 42.9096 56.9012 40.3968 56.3211 38.1404C55.741 35.8327 55.335 34.0634 55.103 32.8327C52.9567 36.4737 50.7235 40.0891 48.4032 43.6788C46.1409 47.2173 43.2406 50.7045 39.7022 54.1404C36.3378 57.3711 32.6544 59.807 28.6519 61.4481C24.6494 63.1404 20.5019 63.9865 16.2094 63.9865C14.8753 63.9865 13.5121 63.9096 12.12 63.7558C8.29152 63.3455 5.47819 62.3711 3.67998 60.8327C1.88177 59.2942 0.982666 57.6532 0.982666 55.9096C0.982666 54.0122 1.93978 52.2942 3.854 50.7558C5.76822 49.2173 8.49454 48.4481 12.033 48.4481C13.1931 48.4481 14.4402 48.5506 15.7744 48.7558C17.1085 48.9609 18.5007 49.2942 19.9509 49.7558C20.589 49.9609 20.908 50.1917 20.908 50.4481C20.908 50.6532 20.676 50.7558 20.2119 50.7558C19.9219 50.7558 19.6898 50.7301 19.5158 50.6788C17.6016 50.0634 15.8904 49.7558 14.3822 49.7558C11.9459 49.7558 10.0897 50.3968 8.81358 51.6788C7.53743 52.9096 6.89936 54.2686 6.89936 55.7558C6.89936 57.1917 7.59544 58.525 8.9876 59.7558C10.3798 60.9865 12.526 61.6019 15.4263 61.6019C19.0808 61.6019 22.4452 60.8583 25.5195 59.3711C28.5939 57.8327 31.4652 55.7558 34.1335 53.1404C36.8018 50.4737 39.3541 47.4737 41.7904 44.1404C44.2267 40.7557 46.605 37.2429 48.9253 33.6019C52.8117 27.4993 56.3211 21.9609 59.4535 16.9865C62.6439 11.9609 66.0083 7.70446 69.5467 4.21728C67.9805 4.06344 66.3853 3.96087 64.7611 3.90959C63.1369 3.85831 61.4837 3.83267 59.8015 3.83267C56.1471 3.83267 52.3477 4.01216 48.4032 4.37113C44.5167 4.67882 40.7463 5.19164 37.0919 5.90959C32.1613 6.83267 27.9268 8.21729 24.3884 10.0634C20.85 11.8583 18.0367 13.884 15.9484 16.1404C13.9182 18.3455 12.642 20.5763 12.12 22.8327C11.9459 23.6532 11.8589 24.4481 11.8589 25.2173C11.8589 27.8327 12.845 29.8583 14.8173 31.2942C16.7895 32.7301 19.0518 33.4481 21.6041 33.4481C23.2283 33.4481 24.8524 33.166 26.4766 32.6019C28.1588 31.9865 29.667 31.0378 31.0012 29.7558C32.1033 28.7301 32.9154 27.7814 33.4374 26.9096C33.9595 25.9865 34.2495 25.2942 34.3075 24.8327C34.3656 24.1147 34.5396 23.7557 34.8296 23.7557C35.0036 23.7557 35.1487 23.884 35.2647 24.1404C35.4387 24.3968 35.4967 24.6532 35.4387 24.9096C35.2067 26.0891 34.8006 27.2429 34.2205 28.3711C33.6405 29.4993 32.9444 30.4481 32.1323 31.2173C30.5081 32.7045 28.6519 33.807 26.5636 34.525C24.4754 35.2429 22.4742 35.6019 20.5599 35.6019C18.2977 35.6019 16.1514 35.166 14.1212 34.2942C12.149 33.4224 10.5538 32.166 9.33564 30.525C8.1175 28.8327 7.50843 26.7557 7.50843 24.2942C7.50843 21.4224 8.63956 18.4993 10.9018 15.525C13.1641 12.4993 16.5575 9.83267 21.082 7.52498C25.6645 5.21729 31.3492 3.62754 38.136 2.75575C41.5584 2.34549 44.8648 2.0378 48.0551 1.83267C51.3035 1.57626 54.4359 1.44805 57.4523 1.44805C59.8885 1.44805 62.2668 1.52498 64.5871 1.67882C66.9073 1.83267 69.1986 2.0378 71.4609 2.29421C72.9691 0.909593 73.9842 0.217285 74.5062 0.217285C74.9123 0.217285 75.1153 0.499336 75.1153 1.06344C75.1153 1.26857 75.0863 1.52498 75.0283 1.83267C74.9703 2.14036 74.8833 2.44805 74.7673 2.75575C76.3335 2.96087 77.8416 3.19164 79.2918 3.44805C80.8 3.65318 82.1341 3.90959 83.2943 4.21728C87.8768 5.34549 91.2122 6.83267 93.3004 8.67882C95.4467 10.4737 96.5198 12.4224 96.5198 14.525C96.5198 16.7814 95.3597 19.0378 93.0394 21.2942C90.7771 23.5506 87.5578 25.5506 83.3813 27.2942C79.2628 29.0378 74.4192 30.3199 68.8506 31.1404C67.0524 31.3968 65.4572 31.5763 64.065 31.6788C62.7309 31.7814 61.5707 31.8583 60.5846 31.9096C60.7006 32.4224 60.9617 33.4993 61.3677 35.1404C61.7737 36.7814 62.3538 38.7301 63.1079 40.9865C63.862 43.1916 64.8191 45.525 65.9792 47.9865C67.1974 50.4481 68.6476 52.7814 70.3297 54.9865C71.6639 56.7301 73.0271 58.166 74.4192 59.2942C75.8114 60.4224 77.2906 60.9865 78.8567 60.9865C79.8429 60.9865 80.858 60.7558 81.9021 60.2942C83.0042 59.8327 84.1354 59.0891 85.2955 58.0634C86.6877 56.8327 87.9638 55.4481 89.1239 53.9096C90.2841 52.3711 98.2019 40.4812 99.014 39.0965C99.8261 37.6607 100.435 36.5324 100.841 35.7119C101.189 35.7119 101.45 35.7376 101.624 35.7889C101.798 35.8401 101.885 36.0453 101.885 36.4042C101.653 36.9171 101.247 37.7376 100.667 38.8658C100.087 39.9427 99.391 41.1735 98.5789 42.5581C97.8249 43.8914 89.1239 56.9865 89.1239 56.9865C88.1958 58.3199 87.2677 59.4481 86.3396 60.3711C85.0055 61.6532 83.4973 62.6019 81.8151 63.2173C80.1909 63.884 78.6247 64.2173 77.1165 64.2173ZM56.9302 29.8327C58.6124 29.5763 60.4106 29.3968 62.3248 29.2942C64.239 29.1916 66.1243 29.0378 67.9805 28.8327C70.9968 28.4737 73.8392 27.7814 76.5075 26.7557C79.1758 25.6788 81.5251 24.3968 83.5553 22.9096C85.6435 21.4224 87.2677 19.8583 88.4279 18.2173C89.588 16.525 90.1681 14.9096 90.1681 13.3711C90.1681 9.88395 87.5287 7.47369 82.2501 6.14036C81.206 5.88395 79.8428 5.62754 78.1607 5.37113C76.5365 5.11472 75.0573 4.88395 73.7231 4.67882C70.9388 8.88395 68.0675 13.0122 65.1091 17.0634C62.2088 21.1147 59.4825 25.3711 56.9302 29.8327Z" fill="#393431"/>
<path d="M213.049 5.92026C212.055 7.20508 210.946 8.82803 209.723 10.7891C208.5 12.7501 207.353 14.6436 206.283 16.4694C205.289 18.2952 204.525 19.6815 203.989 20.6282H214.539C214.539 20.8987 214.386 21.3382 214.081 21.9468C213.851 22.5554 213.354 22.995 212.59 23.2654H202.613C201.696 25.0913 200.626 27.289 199.403 29.8587C198.256 32.4283 197.109 35.0994 195.962 37.8719C194.892 40.6445 193.975 43.2479 193.21 45.6823C192.522 48.0491 192.178 49.9764 192.178 51.4641C192.178 53.4927 192.484 55.0142 193.096 56.0286C193.707 56.9753 194.816 57.4487 196.421 57.4487C198.485 57.4487 203.477 55.3284 206.002 53.1062C207.913 51.2804 211.487 46.1991 213.168 43.4942C214.927 40.7893 216.456 38.0844 217.755 35.3795C218.673 35.3795 219.131 35.6838 219.131 36.2924C218.29 38.1182 217.258 40.1131 216.035 42.277C214.812 44.4409 213.398 46.5372 209.652 51.9036C208.123 53.8646 206.365 55.4875 204.377 56.7724C201.111 58.9943 197.071 59.7816 194.701 59.7816C191.49 59.7816 189.311 59.004 188.165 57.4487C187.018 55.8257 186.445 53.7632 186.445 51.2612C186.445 49.4354 186.827 47.2377 187.591 44.668C188.356 42.0307 189.273 39.3258 190.343 36.5533C191.49 33.7808 192.599 31.2111 193.669 28.8443C194.739 26.4099 195.58 24.5503 196.192 23.2654H188.853C188.853 22.7245 189.12 22.1497 189.655 21.5411C190.191 20.9325 190.764 20.6282 191.376 20.6282H197.453C198.065 19.5462 198.753 18.1938 199.517 16.5708C200.358 14.9479 201.467 13.1559 202.843 11.1948C203.99 9.57187 205.442 8.28705 207.2 7.34033C209.035 6.39361 210.985 5.92026 213.049 5.92026Z" fill="#393431"/>
<path d="M90.5768 60.4153C87.8516 60.4153 85.7333 59.5349 84.2219 57.7742C82.7333 55.985 81.989 53.5568 81.989 50.4897C81.989 48.3597 82.3669 46.5138 83.1226 44.9518C83.8783 43.3898 84.9203 42.197 86.2486 41.3735C87.5768 40.5499 89.0768 40.1381 90.7486 40.1381C93.5196 40.1381 95.6493 41.0469 97.1379 42.8644C98.6264 44.682 99.3707 47.096 99.3707 50.1063C99.3707 52.1795 99.0043 53.997 98.2715 55.559C97.5616 57.121 96.5425 58.3279 95.2142 59.1799C93.886 60.0035 92.3402 60.4153 90.5768 60.4153ZM91.0577 57.689C92.0654 57.689 92.844 57.0784 93.3936 55.8572C93.9432 54.636 94.218 53.0456 94.218 51.0861C94.218 49.3537 94.0349 47.8627 93.6684 46.6132C93.3249 45.3352 92.8555 44.3696 92.26 43.7164C91.6646 43.0632 91.0119 42.7366 90.302 42.7366C89.2944 42.7366 88.5158 43.333 87.9661 44.5258C87.4394 45.7186 87.1761 47.2805 87.1761 49.2117C87.1761 51.7677 87.5196 53.8266 88.2066 55.3886C88.8936 56.9222 89.844 57.689 91.0577 57.689Z" fill="#393431"/>
<path d="M116.726 52.9178C116.726 55.7294 116.817 57.8168 117 59.1799C116.794 59.8047 116.336 60.1171 115.626 60.1171C114.504 60.1171 113.611 60.1029 112.947 60.0745L109.065 60.0319C106.5 60.0319 104.394 60.0603 102.745 60.1171C102.561 59.8047 102.401 59.4213 102.264 58.9669C102.149 58.5125 102.092 58.0582 102.092 57.6038C103.283 55.6442 104.68 53.2444 106.283 50.4045C107.909 47.5645 109.26 45.1364 110.336 43.12H108.206C107.519 43.12 106.981 43.2478 106.592 43.5034C106.226 43.7306 105.928 44.1424 105.699 44.7388C105.493 45.3352 105.298 46.2298 105.115 47.4225C103.901 47.4793 102.962 47.3089 102.298 46.9114C102.504 44.9802 102.607 42.8076 102.607 40.3937C104.027 40.4789 106.317 40.5215 109.477 40.5215C112.34 40.5215 114.493 40.4789 115.936 40.3937C116.096 40.6493 116.21 40.9901 116.279 41.4161C116.371 41.842 116.416 42.268 116.416 42.694C115.386 44.7388 114.115 47.1243 112.603 49.8507C111.092 52.5486 109.626 55.062 108.206 57.3908H111.058C111.836 57.3908 112.42 57.263 112.81 57.0074C113.199 56.7234 113.485 56.2406 113.668 55.559C113.852 54.8774 113.977 53.8834 114.046 52.577C114.916 52.4919 115.81 52.6054 116.726 52.9178Z" fill="#393431"/>
<path d="M150.073 57.5186C150.256 58.2001 150.347 59.0805 150.347 60.1597C149.569 60.0745 148.115 60.0319 145.985 60.0319C143.947 60.0319 142.321 60.0745 141.107 60.1597C141.107 59.1089 141.187 58.2285 141.347 57.5186C141.851 57.4618 142.24 57.3056 142.515 57.05C142.813 56.7944 143.019 56.34 143.134 55.6868C143.271 55.0336 143.34 54.0964 143.34 52.8752V48.9561C143.34 47.2238 143.134 46.0168 142.721 45.3352C142.309 44.6252 141.714 44.2702 140.935 44.2702C139.927 44.2702 139.103 44.8666 138.462 46.0594C137.844 47.2238 137.534 48.8993 137.534 51.0861V53.642C137.534 55.1188 137.672 56.127 137.947 56.6666C138.221 57.1778 138.76 57.4618 139.561 57.5186C139.744 58.0866 139.836 58.9669 139.836 60.1597C139.08 60.0745 137.5 60.0319 135.095 60.0319C132.714 60.0319 131.111 60.0745 130.286 60.1597C130.286 58.9953 130.378 58.115 130.561 57.5186C131.134 57.4618 131.557 57.3198 131.832 57.0926C132.107 56.837 132.301 56.3826 132.416 55.7294C132.531 55.0478 132.588 54.0254 132.588 52.6623V48.6153C132.588 46.9966 132.37 45.8606 131.935 45.2074C131.523 44.5258 130.893 44.185 130.046 44.185C129.45 44.185 128.901 44.469 128.397 45.037C127.893 45.5766 127.492 46.3576 127.195 47.3799C126.897 48.4023 126.748 49.6093 126.748 51.0009V53.642C126.748 54.6644 126.805 55.4454 126.92 55.985C127.034 56.5246 127.229 56.908 127.504 57.1352C127.779 57.334 128.191 57.4618 128.74 57.5186C128.924 58.1717 129.015 59.0521 129.015 60.1597C128.282 60.0745 126.622 60.0319 124.034 60.0319C121.515 60.0319 119.912 60.0745 119.225 60.1597C119.225 59.0521 119.317 58.1717 119.5 57.5186C120.141 57.4618 120.611 57.334 120.908 57.1352C121.229 56.908 121.447 56.553 121.561 56.0702C121.698 55.559 121.767 54.8064 121.767 53.8124V47.8485C121.767 46.8262 121.71 46.0736 121.595 45.5908C121.504 45.0796 121.275 44.7104 120.908 44.4832C120.565 44.256 120.015 44.114 119.26 44.0572C119.26 43.0348 119.397 42.197 119.672 41.5439C120.725 41.5439 121.847 41.4019 123.038 41.1179C124.252 40.8339 125.145 40.5073 125.718 40.1381C126.015 40.2517 126.256 40.5073 126.439 40.9049C126.622 41.2741 126.714 41.771 126.714 42.3958C126.714 42.907 126.611 43.7874 126.405 45.037C126.794 43.9294 127.126 43.2052 127.401 42.8644C127.927 42.0976 128.603 41.4587 129.427 40.9475C130.252 40.4363 131.156 40.1807 132.141 40.1807C133.24 40.1807 134.214 40.4647 135.061 41.0327C135.908 41.6007 136.538 42.4526 136.95 43.5886C137.156 44.043 137.271 44.4974 137.294 44.9518C137.615 44.0998 137.969 43.404 138.359 42.8644C138.863 42.1544 139.504 41.5723 140.282 41.1179C141.061 40.6635 141.92 40.4363 142.859 40.4363C144.599 40.4363 145.939 41.0185 146.878 42.1828C147.84 43.3188 148.321 45.1506 148.321 47.6781V52.6623C148.321 54.0822 148.366 55.1188 148.458 55.772C148.55 56.4252 148.71 56.8654 148.939 57.0926C149.191 57.3198 149.569 57.4618 150.073 57.5186Z" fill="#393431"/>
<path d="M166.255 55.1756C166.484 55.346 166.678 55.6442 166.839 56.0702C167.022 56.4962 167.125 56.9364 167.148 57.3908C166.278 58.4131 165.293 59.1799 164.194 59.6911C163.094 60.1739 161.823 60.4153 160.381 60.4153C157.587 60.4153 155.491 59.4923 154.094 57.6464C152.72 55.8004 152.033 53.3864 152.033 50.4045C152.033 48.3881 152.365 46.6132 153.029 45.0796C153.694 43.5176 154.632 42.3106 155.846 41.4587C157.06 40.5783 158.468 40.1381 160.071 40.1381C162.43 40.1381 164.194 40.9617 165.361 42.6088C166.552 44.2276 167.194 46.4428 167.285 49.2543C167.148 50.0779 166.861 50.7595 166.426 51.2991C162.487 51.2991 159.43 51.3701 157.255 51.5121C157.461 53.2728 157.942 54.6644 158.697 55.6868C159.453 56.6808 160.529 57.1778 161.926 57.1778C162.728 57.1778 163.518 57.0074 164.297 56.6666C165.075 56.2974 165.728 55.8004 166.255 55.1756ZM159.968 42.7792C159.144 42.7792 158.468 43.2904 157.942 44.3128C157.438 45.3068 157.163 46.7978 157.117 48.7857H162.579C162.579 46.883 162.35 45.4062 161.892 44.3554C161.457 43.3046 160.816 42.7792 159.968 42.7792Z" fill="#393431"/>
<path d="M184.313 41.4587C184.107 43.1058 184.004 44.7814 184.004 46.4854C184.004 47.0534 184.015 47.4651 184.038 47.7207C183.374 48.0331 182.401 48.1893 181.118 48.1893C181.095 47.1101 180.958 46.3434 180.706 45.889C180.454 45.4346 180.099 45.2074 179.641 45.2074C179.298 45.2074 178.931 45.463 178.542 45.9742C178.153 46.457 177.832 47.1101 177.58 47.9337C177.328 48.7573 177.202 49.6093 177.202 50.4897V52.577C177.202 53.8266 177.305 54.7922 177.511 55.4738C177.74 56.1554 178.095 56.6524 178.576 56.9648C179.057 57.2488 179.744 57.4334 180.637 57.5186C180.798 58.0866 180.878 58.9669 180.878 60.1597C179.664 60.0745 177.878 60.0319 175.519 60.0319C172.862 60.0319 170.904 60.0745 169.645 60.1597C169.645 59.0237 169.714 58.1434 169.851 57.5186C170.492 57.4618 170.973 57.3198 171.294 57.0926C171.614 56.837 171.843 56.4252 171.981 55.8572C172.118 55.2608 172.187 54.3804 172.187 53.216V47.5077C172.187 46.6274 172.13 45.96 172.015 45.5056C171.901 45.0512 171.672 44.7104 171.328 44.4832C170.985 44.256 170.435 44.114 169.679 44.0572C169.679 42.9496 169.817 42.1118 170.091 41.5439C171.305 41.5155 172.485 41.3735 173.63 41.1179C174.775 40.8339 175.633 40.5073 176.206 40.1381C176.87 40.4505 177.202 41.2315 177.202 42.481C177.202 43.049 177.145 43.688 177.03 44.398C176.939 45.0796 176.813 45.8038 176.653 46.5706C177.019 45.179 177.305 44.2844 177.511 43.8868C178.038 42.836 178.668 41.9982 179.401 41.3735C180.156 40.7487 180.969 40.4363 181.84 40.4363C182.779 40.4363 183.603 40.7771 184.313 41.4587Z" fill="#393431"/>
<path d="M217.544 59.7729C216.496 59.7729 215.562 59.5275 214.742 59.0367C213.967 58.5458 213.58 57.5454 213.58 56.0351C213.58 55.3933 213.625 54.7892 213.716 54.2229C213.853 53.6565 214.013 53.0525 214.195 52.4106C213.785 52.9769 213.215 53.6754 212.486 54.506C211.757 55.3367 210.937 56.1484 210.026 56.9412C209.16 57.7341 208.249 58.3948 207.292 58.9234C206.381 59.452 205.515 59.7163 204.695 59.7163C203.511 59.7163 202.554 59.2821 201.825 58.4137C201.096 57.5076 200.7 56.1062 200.605 54.5229C200.605 52.9749 200.876 50.5196 201.741 48.7451C202.607 46.9705 203.256 45.6339 205.087 44.0228C207.044 42.2728 208.146 41.7089 210.105 40.6895C211.999 39.8572 214.176 39.384 216.929 39.3284C217.976 39.3284 218.979 39.4794 219.936 39.7815C220.892 40.0458 221.735 40.4988 222.464 41.1407C222.783 41.4049 222.943 41.707 222.943 42.0468C222.943 42.2733 222.829 42.4621 222.601 42.6131C222.373 42.7641 222.077 42.8019 221.713 42.7264C221.211 41.4049 220.141 40.7442 218.5 40.7442C217.726 40.7442 216.837 40.9519 215.835 41.3672C214.605 41.8958 213.284 42.7452 211.871 43.9157C210.504 45.0483 209.206 46.3509 207.976 47.8233C206.791 49.2581 205.812 50.7116 205.037 52.1841C204.262 53.6566 203.875 54.9968 203.875 56.205C203.875 57.451 204.445 58.0739 205.584 58.0739C206.586 58.0739 207.611 57.6775 208.659 56.8846C209.753 56.0917 210.778 55.1101 211.735 53.9397C212.737 52.7315 213.648 51.5423 214.468 50.3718C215.288 49.2014 215.926 48.2575 216.382 47.5402C217.065 46.5208 217.703 45.6713 218.295 44.9917C218.888 44.3121 219.731 43.9723 220.824 43.9723C221.325 43.9723 221.826 44.0289 222.328 44.1422C222.829 44.2555 223.353 44.2743 223.899 44.1988C222.533 45.3315 221.325 46.6718 220.277 48.2198C219.275 49.7678 218.5 51.2968 217.954 52.807C217.407 54.2795 217.134 55.5254 217.134 56.5448C217.134 57.6775 217.589 58.2438 218.5 58.2438C219.229 58.2438 220.004 57.904 220.824 57.2244C221.69 56.5448 222.51 55.6953 223.284 54.6759C224.104 53.6188 224.856 52.5616 225.54 51.5045C226.223 50.4096 226.77 49.4657 227.18 48.6728C227.408 48.6728 227.59 48.6917 227.727 48.7295C227.909 48.7672 228 48.9182 228 49.1825C227.954 49.3336 227.863 49.5034 227.727 49.6922C227.636 49.8433 227.476 50.1264 227.248 50.5417C226.884 51.1458 226.383 51.9575 225.745 52.9769C225.107 53.9963 224.355 55.0346 223.489 56.0917C222.624 57.1112 221.69 57.9795 220.687 58.6969C219.685 59.4142 218.637 59.7729 217.544 59.7729Z" fill="#393431"/>
</svg>
